<svg width="504" height="399" viewBox="0 0 504 399" fill="none" xmlns="http://www.w3.org/2000/svg">
<g clip-path="url(#clip0)">
<path d="M503.749 -255H0V398.471H503.749V-255Z" fill="white"/>
<path d="M456.498 398.471C463.551 398.471 469.193 392.813 469.294 385.841C469.797 350.881 472.618 299.249 406.929 284.901C353.734 273.382 385.268 178.505 242.002 184.668C139.136 189.114 166.439 276.009 86.5448 283.284C33.3489 288.134 32.8451 355.629 34.9608 386.548C35.3638 393.318 41.0058 398.572 47.7561 398.572H456.498V398.471Z" fill="#B5DFEA"/>
<path opacity="0.55" d="M406.929 284.901C353.733 273.382 385.268 178.505 242.002 184.668C217.52 185.679 200.493 191.438 187.496 199.622C191.828 199.016 196.463 198.612 201.4 198.41C344.666 192.246 313.131 287.124 366.327 298.642C431.311 312.788 429.296 363.41 428.691 398.471H456.398C463.45 398.471 469.092 392.813 469.193 385.841C469.797 350.78 472.618 299.148 406.929 284.901Z" fill="#90CEDD"/>
<path d="M343.356 180.525L175.204 160.822C168.051 160.014 161.502 165.167 160.696 172.341L148.103 280.253C147.297 287.426 152.435 293.994 159.588 294.802L327.74 314.505C334.893 315.314 341.442 310.161 342.248 302.987L354.842 195.075C355.648 187.901 350.509 181.435 343.356 180.525Z" fill="#D7F0F9"/>
<path d="M353.633 205.785L354.842 195.075C355.648 187.901 350.51 181.334 343.357 180.525L175.205 160.822C168.052 160.014 161.503 165.167 160.697 172.341L159.488 183.051L353.633 205.785Z" fill="#383D45"/>
<path d="M186.59 248.425L207.949 210.737C209.359 208.312 211.979 206.998 214.699 207.301C218.528 207.706 221.147 211.141 220.744 214.98L216.311 253.073H216.513C219.132 253.376 221.046 255.801 220.744 258.428C220.442 261.055 218.024 262.975 215.404 262.672H215.203L214.397 269.644C214.095 272.473 211.475 274.494 208.654 274.19C205.833 273.887 203.818 271.26 204.12 268.431L204.926 261.459L189.612 259.641C186.993 259.337 185.079 256.912 185.381 254.285L185.784 250.749C185.885 249.941 186.187 249.132 186.59 248.425ZM206.135 251.254L208.856 227.611C208.856 227.408 208.654 227.408 208.553 227.51L195.96 249.84C195.758 250.244 195.96 250.749 196.463 250.749L205.43 251.759C205.732 251.86 206.035 251.557 206.135 251.254Z" fill="#79C9E8"/>
<path d="M280.692 259.438L302.051 221.75C303.461 219.325 306.081 218.011 308.801 218.315C312.629 218.719 315.249 222.154 314.846 225.994L310.413 264.086H310.614C313.234 264.389 315.148 266.814 314.846 269.441C314.543 272.068 312.126 273.988 309.506 273.685H309.305L308.499 280.657C308.196 283.486 305.577 285.507 302.756 285.204C299.935 284.901 297.92 282.273 298.222 279.444L299.028 272.472L283.714 270.654C281.095 270.351 279.18 267.926 279.483 265.299L279.886 261.762C279.986 260.954 280.289 260.145 280.692 259.438ZM300.237 262.267L302.957 238.624C302.957 238.422 302.756 238.422 302.655 238.523L290.061 260.853C289.86 261.257 290.061 261.762 290.565 261.762L299.532 262.773C299.834 262.874 300.136 262.57 300.237 262.267Z" fill="#79C9E8"/>
<path d="M238.374 226.196C239.583 215.587 245.93 210.131 256.106 211.343C266.382 212.556 271.218 219.326 270.009 229.935L265.979 264.491C264.77 275.1 258.423 280.556 248.248 279.344C237.971 278.131 233.135 271.362 234.344 260.752L238.374 226.196ZM244.721 262.773C244.218 267.522 246.031 269.543 249.356 269.947C252.68 270.351 254.998 268.735 255.501 263.986L259.733 228.015C260.237 223.266 258.423 221.245 255.098 220.841C251.774 220.437 249.457 222.054 248.953 226.803L244.721 262.773Z" fill="#79C9E8"/>
<path d="M179.134 175.776C178.933 177.696 177.119 179.111 175.205 178.909C173.291 178.706 171.88 176.888 172.082 174.968C172.283 173.048 174.097 171.634 176.011 171.836C177.925 172.038 179.436 173.856 179.134 175.776Z" fill="white"/>
<path d="M196.06 177.797C195.858 179.717 194.045 181.132 192.131 180.93C190.216 180.727 188.806 178.909 189.007 176.989C189.209 175.069 191.022 173.655 192.937 173.857C194.851 174.059 196.261 175.776 196.06 177.797Z" fill="#79C9E8"/>
<path d="M213.591 179.818C213.39 181.737 211.576 183.152 209.662 182.95C207.748 182.748 206.337 180.929 206.539 179.009C206.74 177.09 208.554 175.675 210.468 175.877C212.382 176.079 213.793 177.898 213.591 179.818Z" fill="#FFBF4D"/>
<path d="M145.886 302.684C145.886 302.684 143.569 312.788 143.972 323.094C144.274 332.39 143.166 393.115 143.166 393.115H150.521C150.521 393.115 161.099 345.525 161.502 341.787C161.905 338.048 167.245 300.461 167.245 300.461L145.886 302.684Z" fill="#00668E"/>
<path d="M150.824 299.854C150.824 299.854 152.537 312.889 155.459 322.083C158.38 331.278 172.586 393.115 172.586 393.115H179.941C179.941 393.115 178.53 345.525 178.027 341.786C177.523 338.048 173.795 300.461 173.795 300.461L150.824 299.854Z" fill="#0582C1"/>
<path d="M173.189 393.116V398.269H187.294C188.1 398.269 188.403 397.258 187.697 396.753C185.682 395.339 182.358 393.52 179.234 393.015H173.189V393.116Z" fill="#0582C1"/>
<path d="M143.57 393.116V398.269H157.675C158.481 398.269 158.784 397.258 158.078 396.753C156.063 395.339 152.739 393.52 149.615 393.015H143.57V393.116Z" fill="#0582C1"/>
<path d="M169.059 239.534C169.059 239.534 173.895 232.158 168.354 231.451C164.123 230.946 162.309 232.158 162.309 232.158C162.309 232.158 157.372 231.653 154.652 233.977C152.839 235.593 145.988 248.021 156.969 252.568C167.951 257.115 165.634 245.596 165.634 245.596L169.059 239.534Z" fill="#00668E"/>
<path d="M168.354 231.349C164.123 230.844 162.309 232.057 162.309 232.057C162.309 232.057 157.372 231.551 154.652 233.875C152.839 235.492 145.988 247.92 156.969 252.467C162.108 254.589 164.324 253.174 165.231 251.052C154.854 253.982 153.745 241.453 155.458 237.816C157.171 234.178 161.402 235.896 161.402 235.896C163.014 231.753 168.354 232.259 170.571 232.562C170.168 231.955 169.462 231.551 168.354 231.349Z" fill="#05556D"/>
<path d="M162.208 243.07C162.208 243.07 160.797 241.655 159.689 243.07C158.581 244.484 159.286 247.718 161.099 247.92C161.099 247.92 160.596 252.568 156.969 252.466V256.205H165.432V253.376C165.432 253.376 170.671 251.254 170.469 246.909C170.268 242.564 169.059 239.533 169.059 239.533C169.059 239.533 166.137 242.767 162.208 243.07Z" fill="#F98D3D"/>
<path d="M163.518 254.588C164.324 254.892 164.223 255.498 164.223 256.306H165.432V253.376C165.432 253.376 163.417 253.982 160.395 252.366C160.395 252.265 162.107 253.982 163.518 254.588Z" fill="#ED701B"/>
<path d="M165.23 236.199C165.23 236.199 160.898 234.481 160.394 235.795C160.092 236.603 160.898 237.412 162.107 238.119L161.099 238.321C160.898 238.321 160.797 238.624 160.998 238.826C161.301 239.028 162.107 239.23 163.719 239.23L165.23 236.199Z" fill="#F98D3D"/>
<path d="M196.462 247.212C188.1 241.049 165.331 236.098 165.331 236.098L163.416 239.533C163.416 239.533 184.07 247.616 182.76 248.728C181.954 249.435 171.879 254.083 168.454 255.599C167.749 255.902 166.943 256.104 166.137 256.104L155.659 256.003C155.659 256.003 148.102 255.093 142.158 261.964C136.818 268.128 127.852 282.273 127.852 282.273L143.065 304.704L144.778 307.23V307.433C144.778 307.433 145.281 307.534 146.289 307.534C151.226 307.938 166.842 309.251 175.103 307.433L175.305 307.331L174.902 270.553C188.1 260.044 194.447 251.961 196.764 249.334C197.268 248.728 197.167 247.717 196.462 247.212ZM145.382 297.328L143.871 294.095L139.136 283.688L146.994 274.897L145.584 294.196L145.382 297.328Z" fill="#383D45"/>
<path d="M143.972 294.095L145.383 297.329L144.678 307.231L142.965 304.705L143.972 294.095Z" fill="#EFAA3A"/>
<path opacity="0.29" d="M171.376 269.34C169.965 270.35 170.368 279.444 169.965 285.203C169.361 294.701 168.857 302.987 169.26 308.342C171.376 308.241 173.391 307.938 175.104 307.635L175.305 307.534L174.902 270.755C188.1 260.246 194.448 252.163 196.765 249.536C197.369 248.829 197.269 247.818 196.563 247.313C196.463 247.212 185.985 258.63 171.376 269.34Z" fill="#F98D2B"/>
<path d="M178.026 341.787C177.623 339.058 175.608 318.749 174.5 307.635L169.16 308.241C169.16 308.241 176.918 372.2 177.422 393.216H179.84C179.94 393.115 178.53 345.525 178.026 341.787Z" fill="#00668E"/>
<path d="M143.972 244.181L142.36 241.251C143.166 239.735 143.67 238.018 143.67 236.199C143.67 230.137 138.834 225.287 132.789 225.287C126.744 225.287 121.908 230.137 121.908 236.199C121.908 242.261 126.744 247.111 132.789 247.111C135.812 247.111 138.532 245.899 140.547 243.878L143.972 244.181Z" fill="#0582C1"/>
<path d="M102.262 375.13C102.262 375.13 99.9444 373.008 101.556 364.925C103.068 356.842 106.997 349.062 105.083 340.271C103.168 331.481 88.2574 309.252 88.1566 307.837C88.1566 306.321 83.5221 333.602 91.2799 344.414C99.0376 355.124 99.9444 358.863 99.6421 364.521C99.3399 370.179 99.7429 374.726 100.549 376.04L102.262 375.13Z" fill="#79C9E8"/>
<path d="M100.851 358.863C99.944 362.5 99.4402 371.594 100.851 373.716C100.951 373.918 101.153 373.817 101.455 373.412C101.052 371.897 100.75 369.27 101.556 364.925C103.067 356.842 106.996 349.062 105.082 340.271C103.168 331.48 88.257 309.251 88.1562 307.837C88.1562 307.837 90.3727 326.327 98.0297 339.059C103.47 348.051 101.757 355.225 100.851 358.863Z" fill="#49B4D6"/>
<path d="M105.082 374.524C105.082 374.524 100.649 363.511 108.104 354.013C115.559 344.515 127.448 332.289 127.649 327.439C127.649 327.439 130.672 350.476 121 356.943C111.328 363.41 104.477 364.521 106.19 374.524H105.082Z" fill="#79C9E8"/>
<path d="M115.459 352.295C104.679 360.176 103.772 369.27 105.485 373.514C105.586 373.817 105.888 374.019 106.19 374.12C104.78 364.42 111.429 363.309 121.001 356.943C130.673 350.476 127.65 327.439 127.65 327.439C127.65 327.439 126.24 344.414 115.459 352.295Z" fill="#49B4D6"/>
<path d="M97.8283 374.827C97.8283 374.827 99.2388 368.967 98.5336 362.702C97.8283 356.438 91.2796 352.901 85.1338 346.233C82.0106 342.797 81.1039 324.711 83.0181 323.094C83.0181 323.094 72.2379 336.23 73.8499 345.828C75.5626 355.427 93.0931 361.692 94.8058 366.34C96.4178 370.988 96.3171 374.928 96.3171 374.928L97.8283 374.827Z" fill="#79C9E8"/>
<path d="M79.2915 328.25C75.7652 337.95 79.3922 349.67 91.2807 356.945C100.046 362.301 97.225 373.516 97.225 373.516L98.6355 369.07C98.7362 367.15 98.7362 364.928 98.5347 362.705C97.8295 356.44 91.2807 352.904 85.135 346.235C82.1125 342.901 81.105 326.027 82.8177 323.299C82.2132 324.006 80.8027 325.825 79.2915 328.25Z" fill="#49B4D6"/>
<path d="M82.7168 323.299C82.8188 323.094 82.9209 323.094 82.9209 323.094C82.8188 323.197 82.8188 323.197 82.7168 323.299Z" fill="#49B4D6"/>
<path d="M107.299 374.12C107.299 374.12 109.818 364.723 116.064 363.409C122.311 362.096 129.464 352.901 129.867 351.083C129.968 351.083 128.859 368.563 107.299 374.12Z" fill="#79C9E8"/>
<path d="M115.762 366.542C111.933 368.462 110.321 371.089 109.717 373.413C128.96 367.249 129.867 351.083 129.867 351.083C129.766 351.487 129.464 352.093 128.859 352.901C127.046 356.135 122.512 363.106 115.762 366.542Z" fill="#49B4D6"/>
<path d="M120.798 370.583H88.0547L91.9839 395.136C92.2862 396.955 93.8982 398.37 95.7117 398.37H113.141C115.056 398.37 116.668 396.955 116.869 395.136L120.798 370.583Z" fill="#FFBF4D"/>
<path d="M120.194 374.625L120.798 370.583H88.0547L88.7599 374.625H120.194Z" fill="#FF9F50"/>
<path d="M112.94 370.583L109.011 395.136C108.709 396.955 107.097 398.37 105.283 398.37H113.242C115.157 398.37 116.769 396.955 116.97 395.136L120.899 370.583H112.94Z" fill="#FF9F50"/>
<path d="M346.681 326.833H198.68V357.044H346.681V326.833Z" fill="#FFBF4D"/>
<path opacity="0.29" d="M346.681 326.833H198.68V334.107H346.681V326.833Z" fill="#F98D2B"/>
<path d="M211.576 326.833H225.077L221.45 334.208H207.949L211.576 326.833Z" fill="#F77E2D"/>
<path d="M242.002 326.833H255.502L251.875 334.208H238.375L242.002 326.833Z" fill="#F77E2D"/>
<path d="M272.428 326.833H285.928L282.301 334.208H268.801L272.428 326.833Z" fill="#F77E2D"/>
<path d="M302.856 326.833H316.356L312.729 334.208H299.229L302.856 326.833Z" fill="#F77E2D"/>
<path d="M346.681 326.833V327.035L343.155 334.208H329.654L333.281 326.833H346.681Z" fill="#F77E2D"/>
<path d="M227.595 357.043H217.117V398.268H227.595V357.043Z" fill="#79C9E8"/>
<path d="M227.596 357.043H225.178V398.268H227.596V357.043Z" fill="#49B4D6"/>
<path d="M329.05 357.043H318.572V398.268H329.05V357.043Z" fill="#79C9E8"/>
<path d="M329.051 357.043H325.928V398.268H329.051V357.043Z" fill="#49B4D6"/>
<path d="M227.595 357.043H217.117V362.197H227.595V357.043Z" fill="#49B4D6"/>
<path d="M329.05 357.043H318.572V362.197H329.05V357.043Z" fill="#49B4D6"/>
<path d="M227.595 322.185H217.117V326.832H227.595V322.185Z" fill="#79C9E8"/>
<path d="M227.596 322.185H225.178V326.832H227.596V322.185Z" fill="#49B4D6"/>
<path d="M329.05 322.185H318.572V326.832H329.05V322.185Z" fill="#79C9E8"/>
<path d="M329.051 322.185H325.928V326.832H329.051V322.185Z" fill="#49B4D6"/>
<path d="M227.595 326.226H217.117V326.832H227.595V326.226Z" fill="#49B4D6"/>
<path d="M329.05 326.226H318.572V326.832H329.05V326.226Z" fill="#49B4D6"/>
<path d="M225.076 326.833L210.165 357.044H198.68V352.901L211.576 326.833H225.076Z" fill="#0582C1"/>
<path d="M242.003 326.833L227.092 357.044H240.592L255.503 326.833H242.003Z" fill="#0582C1"/>
<path d="M285.929 326.833L271.018 357.044H257.518L272.429 326.833H285.929Z" fill="#0582C1"/>
<path d="M316.355 326.833L301.444 357.044H287.943L302.854 326.833H316.355Z" fill="#0582C1"/>
<path d="M333.282 326.833L318.371 357.044H331.872L346.682 327.035L333.282 326.833Z" fill="#0582C1"/>
<path d="M225.077 326.833L221.45 334.208H207.949L211.576 326.833H225.077Z" fill="#00668E"/>
<path d="M255.504 326.833L251.877 334.208H238.377L242.004 326.833H255.504Z" fill="#00668E"/>
<path d="M285.93 326.833L282.303 334.208H268.803L272.43 326.833H285.93Z" fill="#00668E"/>
<path d="M316.356 326.833L312.729 334.208H299.229L302.856 326.833H316.356Z" fill="#00668E"/>
<path d="M346.681 327.035L343.155 334.208H329.654L333.281 326.833L346.681 327.035Z" fill="#00668E"/>
<path opacity="0.55" d="M344.062 339.968H202.811V355.023H344.062V339.968Z" fill="url(#paint0_linear)"/>
<path d="M223.524 324.796C228.577 323.972 232.006 319.196 231.184 314.129C230.362 309.061 225.6 305.622 220.547 306.447C215.494 307.271 212.065 312.047 212.887 317.114C213.709 322.182 218.472 325.621 223.524 324.796Z" fill="#FFBF4D"/>
<path d="M226.285 315.617C226.285 313.293 224.371 311.373 222.054 311.373C219.736 311.373 217.822 313.293 217.822 315.617C217.822 317.941 219.736 319.861 222.054 319.861C224.371 319.861 226.285 317.941 226.285 315.617Z" fill="#0582C1"/>
<path d="M325.28 324.794C330.333 323.97 333.762 319.194 332.94 314.127C332.118 309.059 327.355 305.62 322.303 306.445C317.25 307.269 313.821 312.045 314.643 317.112C315.465 322.18 320.227 325.619 325.28 324.794Z" fill="#FFBF4D"/>
<path d="M327.942 315.617C327.942 313.293 326.027 311.373 323.71 311.373C321.393 311.373 319.479 313.293 319.479 315.617C319.479 317.941 321.393 319.861 323.71 319.861C326.027 319.861 327.942 317.941 327.942 315.617Z" fill="#0582C1"/>
<path d="M402.7 395.137H355.549L362.803 377.657L365.725 370.584L366.531 368.664L367.84 365.532L368.143 364.925L371.064 357.853L371.568 356.539L376.706 344.01C377.613 341.787 380.837 341.787 381.744 344.01L386.882 356.539L387.386 357.853L390.307 364.925L390.61 365.532L391.919 368.664L392.725 370.584L395.647 377.657L402.7 395.137Z" fill="#FFBF4D"/>
<path opacity="0.29" d="M358.672 387.559L355.549 395.137H402.7L399.576 387.559H358.672Z" fill="#F98D2B"/>
<path d="M405.822 390.589H351.82V398.268H405.822V390.589Z" fill="#79C9E8"/>
<path d="M405.822 390.589H394.135V398.268H405.822V390.589Z" fill="#49B4D6"/>
<path opacity="0.29" d="M400.887 390.59H394.238L388.898 377.555L385.977 370.483L385.171 368.563L383.861 365.431L383.559 364.824L380.637 357.751L380.133 356.438L375.801 345.93L376.607 343.909C377.514 341.686 380.738 341.686 381.644 343.909L386.783 356.438L387.286 357.751L390.208 364.824L390.51 365.431L391.82 368.563L392.626 370.483L395.548 377.555L400.887 390.59Z" fill="#F98D2B"/>
<path d="M390.208 364.723H368.043L370.965 357.65H387.286L390.208 364.723Z" fill="#0582C1"/>
<path d="M395.547 377.555H362.803L365.724 370.482H392.625L395.547 377.555Z" fill="#0582C1"/>
<path d="M390.208 364.723H383.559L380.637 357.65H387.286L390.208 364.723Z" fill="#00668E"/>
<path d="M395.548 377.555H388.798L385.977 370.482H392.626L395.548 377.555Z" fill="#00668E"/>
<path d="M102.362 223.266C105.888 223.266 108.911 220.74 109.415 217.204C109.515 216.597 109.515 215.89 109.515 215.284C109.515 207.504 103.269 201.138 95.4104 201.138C95.1082 201.138 94.806 201.138 94.5037 201.138C93.8992 193.459 87.4512 187.396 79.5927 187.396C71.3312 187.396 64.6817 194.065 64.6817 202.351C64.6817 202.755 64.6817 203.058 64.6817 203.462C62.3645 202.148 59.6442 201.441 56.7225 201.542C49.267 201.845 43.0205 207.908 42.5168 215.385C42.5168 215.486 42.5168 215.486 42.5168 215.587C42.3153 219.629 45.5393 223.064 49.67 223.064H102.362V223.266Z" fill="#D7F0F9"/>
<path d="M437.96 234.38C449.042 234.38 449.647 217.608 438.564 217.102C438.262 217.102 437.96 217.102 437.658 217.102C435.643 217.102 433.728 217.406 432.016 218.012C430.504 208.918 422.646 201.946 413.176 201.946C403.504 201.946 395.444 209.221 394.235 218.618C391.917 217.507 389.399 216.9 386.678 216.9C385.167 216.9 383.656 217.102 382.245 217.507C372.473 220.033 374.588 234.481 384.563 234.481H437.96V234.38Z" fill="#D7F0F9"/>
<path d="M304.366 151.628C315.448 151.628 316.053 134.855 304.97 134.35C304.668 134.35 304.366 134.35 304.064 134.35C302.049 134.35 300.134 134.653 298.422 135.259C296.91 126.166 289.052 119.295 279.581 119.295C269.909 119.295 261.95 126.57 260.64 135.866C258.323 134.754 255.804 134.148 253.084 134.148C251.573 134.148 250.062 134.35 248.651 134.754C238.979 137.28 240.994 151.729 250.968 151.729H304.366V151.628Z" fill="#D7F0F9"/>
<path d="M127.349 182.749C142.094 182.749 154.048 170.761 154.048 155.973C154.048 141.185 142.094 129.197 127.349 129.197C112.604 129.197 100.65 141.185 100.65 155.973C100.65 170.761 112.604 182.749 127.349 182.749Z" fill="#FFBF4D"/>
<path d="M127.651 129.197C134.905 133.946 139.64 142.232 139.64 151.527C139.64 166.279 127.752 178.303 112.942 178.303C112.841 178.303 112.841 178.303 112.74 178.303C116.972 181.031 121.908 182.648 127.349 182.648C142.058 182.648 154.048 170.725 154.048 155.872C154.048 141.221 142.26 129.298 127.651 129.197Z" fill="#FF9F50"/>
<path d="M125.433 232.967L126.441 235.089C126.542 235.392 126.642 235.695 126.844 235.999C126.945 235.695 127.045 235.493 127.146 235.089L127.952 232.967H128.657L127.65 235.493C127.348 236.201 127.045 236.908 126.743 237.413C126.441 237.817 126.038 238.019 125.635 238.019C125.433 238.019 125.333 238.019 125.232 238.019L125.333 237.514C125.433 237.514 125.433 237.514 125.534 237.514C126.038 237.514 126.34 237.009 126.542 236.706C126.642 236.605 126.542 236.504 126.542 236.403L124.93 233.068H125.433V232.967Z" fill="white"/>
<path d="M132.587 232.966V237.917H131.982V233.472H129.665V237.917H129.061V232.966H132.587Z" fill="white"/>
<path d="M137.222 237.816C137.02 237.917 136.517 238.018 135.912 238.018C134.502 238.018 133.494 237.109 133.494 235.492C133.494 233.977 134.502 232.865 136.114 232.865C136.718 232.865 137.121 232.966 137.323 233.067L137.121 233.573C136.92 233.471 136.517 233.37 136.114 233.37C135.005 233.37 134.199 234.078 134.199 235.391C134.199 236.604 134.905 237.412 136.114 237.412C136.517 237.412 136.92 237.311 137.121 237.21L137.222 237.816Z" fill="white"/>
<path d="M137.826 237.614C137.826 237.311 138.028 237.109 138.229 237.109C138.531 237.109 138.632 237.311 138.632 237.614C138.632 237.917 138.431 238.119 138.229 238.119C137.927 238.018 137.826 237.816 137.826 237.614Z" fill="white"/>
<path d="M139.336 237.614C139.336 237.311 139.537 237.109 139.739 237.109C140.041 237.109 140.142 237.311 140.142 237.614C140.142 237.917 139.94 238.119 139.739 238.119C139.537 238.018 139.336 237.816 139.336 237.614Z" fill="white"/>
<path d="M140.848 237.614C140.848 237.311 141.049 237.109 141.251 237.109C141.553 237.109 141.654 237.311 141.654 237.614C141.654 237.917 141.452 238.119 141.251 238.119C141.049 238.018 140.848 237.816 140.848 237.614Z" fill="white"/>
</g>
<defs>
<linearGradient id="paint0_linear" x1="273.451" y1="365.877" x2="273.451" y2="341.573" gradientUnits="userSpaceOnUse">
<stop stop-color="white"/>
<stop offset="1" stop-color="white" stop-opacity="0"/>
</linearGradient>
<clipPath id="clip0">
<rect width="503.749" height="397.697" fill="white" transform="translate(0 0.773926)"/>
</clipPath>
</defs>
</svg>
