<svg width="180" height="18" viewBox="0 0 180 18" fill="none" xmlns="http://www.w3.org/2000/svg">
<path d="M2.70618 12.5854C2.83339 12.5969 2.97795 12.6085 3.13986 12.6201C3.31333 12.6201 3.51572 12.6201 3.74701 12.6201C5.1001 12.6201 6.10046 12.2789 6.74809 11.5966C7.40729 10.9143 7.73689 9.97172 7.73689 8.76897C7.73689 7.5084 7.42464 6.5543 6.80013 5.90667C6.17563 5.25904 5.18684 4.93522 3.83375 4.93522C3.64871 4.93522 3.45789 4.94101 3.26129 4.95257C3.06469 4.95257 2.87965 4.96414 2.70618 4.98727V12.5854ZM10.5298 8.76897C10.5298 9.80981 10.3679 10.7177 10.0441 11.4925C9.72026 12.2673 9.25766 12.9092 8.65629 13.418C8.06648 13.9269 7.34368 14.3085 6.48788 14.563C5.63208 14.8174 4.6722 14.9446 3.60823 14.9446C3.12251 14.9446 2.55583 14.9215 1.9082 14.8752C1.26057 14.8405 0.624502 14.7596 0 14.6324V2.92294C0.624502 2.80729 1.27213 2.73212 1.9429 2.69743C2.62522 2.65117 3.20925 2.62804 3.69497 2.62804C4.72424 2.62804 5.65521 2.74368 6.48788 2.97498C7.33212 3.20628 8.05492 3.57057 8.65629 4.06786C9.25766 4.56515 9.72026 5.20122 10.0441 5.97606C10.3679 6.75091 10.5298 7.68188 10.5298 8.76897Z" fill="white"/>
<path d="M12.0963 14.7885V2.76681H20.2149V5.03931H14.8025V7.39854H19.6077V9.61899H14.8025V12.516H20.6139V14.7885H12.0963Z" fill="white"/>
<path d="M25.6825 14.7885C25.2084 13.7823 24.74 12.7357 24.2774 11.6486C23.8148 10.5615 23.3753 9.48599 22.959 8.42203C22.5427 7.35806 22.1552 6.34035 21.7967 5.36891C21.4498 4.39746 21.1491 3.53009 20.8947 2.76681H23.8784C24.1097 3.46071 24.3583 4.21242 24.6243 5.02196C24.9019 5.81994 25.1794 6.61791 25.457 7.41589C25.7461 8.21386 26.0237 8.97714 26.2897 9.70573C26.5557 10.4343 26.8043 11.0646 27.0356 11.5966C27.2553 11.0646 27.4982 10.4343 27.7642 9.70573C28.0417 8.97714 28.3193 8.21386 28.5969 7.41589C28.886 6.61791 29.1635 5.81994 29.4295 5.02196C29.7071 4.21242 29.9615 3.46071 30.1928 2.76681H33.0724C32.8065 3.53009 32.5 4.39746 32.153 5.36891C31.8061 6.34035 31.4245 7.35806 31.0081 8.42203C30.5918 9.48599 30.1523 10.5615 29.6897 11.6486C29.2271 12.7357 28.7588 13.7823 28.2846 14.7885H25.6825Z" fill="white"/>
<path d="M33.9343 14.7885V2.76681H42.0528V5.03931H36.6404V7.39854H41.4456V9.61899H36.6404V12.516H42.4518V14.7885H33.9343Z" fill="white"/>
<path d="M51.7923 12.4639V14.7885H43.7605V2.76681H46.4667V12.4639H51.7923Z" fill="white"/>
<path d="M54.7751 8.76897C54.7751 9.35878 54.8445 9.89076 54.9833 10.3649C55.1336 10.8391 55.3418 11.2496 55.6078 11.5966C55.8853 11.932 56.2207 12.1922 56.6139 12.3772C57.0071 12.5622 57.4582 12.6548 57.967 12.6548C58.4643 12.6548 58.9095 12.5622 59.3028 12.3772C59.7075 12.1922 60.0429 11.932 60.3089 11.5966C60.5865 11.2496 60.7946 10.8391 60.9334 10.3649C61.0837 9.89076 61.1589 9.35878 61.1589 8.76897C61.1589 8.17917 61.0837 7.64718 60.9334 7.17302C60.7946 6.6873 60.5865 6.27675 60.3089 5.94137C60.0429 5.59442 59.7075 5.32843 59.3028 5.14339C58.9095 4.95835 58.4643 4.86584 57.967 4.86584C57.4582 4.86584 57.0071 4.96414 56.6139 5.16074C56.2207 5.34578 55.8853 5.61177 55.6078 5.95871C55.3418 6.29409 55.1336 6.70465 54.9833 7.19037C54.8445 7.66453 54.7751 8.19073 54.7751 8.76897ZM63.9518 8.76897C63.9518 9.79824 63.7957 10.7061 63.4835 11.4925C63.1828 12.2673 62.7664 12.9208 62.2344 13.4527C61.7025 13.9732 61.0664 14.3664 60.3262 14.6324C59.5977 14.8983 58.8112 15.0313 57.967 15.0313C57.1459 15.0313 56.3711 14.8983 55.6425 14.6324C54.9139 14.3664 54.2778 13.9732 53.7343 13.4527C53.1907 12.9208 52.7628 12.2673 52.4506 11.4925C52.1383 10.7061 51.9822 9.79824 51.9822 8.76897C51.9822 7.7397 52.1441 6.83764 52.4679 6.0628C52.7917 5.27639 53.2254 4.61719 53.769 4.08521C54.3241 3.55322 54.9601 3.15424 55.6772 2.88825C56.4058 2.62225 57.169 2.48926 57.967 2.48926C58.7881 2.48926 59.563 2.62225 60.2915 2.88825C61.0201 3.15424 61.6562 3.55322 62.1997 4.08521C62.7433 4.61719 63.1712 5.27639 63.4835 6.0628C63.7957 6.83764 63.9518 7.7397 63.9518 8.76897Z" fill="white"/>
<path d="M69.122 2.62804C70.9145 2.62804 72.2908 2.94607 73.2506 3.58214C74.2105 4.20664 74.6905 5.23591 74.6905 6.66995C74.6905 8.11556 74.2047 9.16218 73.2333 9.80981C72.2618 10.4459 70.8741 10.7639 69.0699 10.7639H68.2199V14.7885H65.5138V2.94029C66.1036 2.82464 66.7281 2.74369 67.3873 2.69743C68.0465 2.65117 68.6247 2.62804 69.122 2.62804ZM69.2955 4.93522C69.0989 4.93522 68.9023 4.94101 68.7057 4.95257C68.5206 4.96414 68.3587 4.9757 68.2199 4.98727V8.45672H69.0699C70.0067 8.45672 70.7122 8.32951 71.1863 8.07508C71.6605 7.82066 71.8976 7.3465 71.8976 6.65261C71.8976 6.31722 71.8339 6.03967 71.7067 5.81994C71.5911 5.6002 71.4176 5.42673 71.1863 5.29952C70.9666 5.16074 70.6948 5.06822 70.371 5.02196C70.0472 4.96414 69.6887 4.93522 69.2955 4.93522Z" fill="white"/>
<path d="M75.9838 14.7885V2.76681H84.1023V5.03931H78.69V7.39854H83.4952V9.61899H78.69V12.516H84.5013V14.7885H75.9838Z" fill="white"/>
<path d="M88.5163 12.5854C88.6435 12.5969 88.788 12.6085 88.9499 12.6201C89.1234 12.6201 89.3258 12.6201 89.5571 12.6201C90.9102 12.6201 91.9105 12.2789 92.5582 11.5966C93.2174 10.9143 93.547 9.97172 93.547 8.76897C93.547 7.5084 93.2347 6.5543 92.6102 5.90667C91.9857 5.25904 90.9969 4.93522 89.6438 4.93522C89.4588 4.93522 89.268 4.94101 89.0714 4.95257C88.8748 4.95257 88.6897 4.96414 88.5163 4.98727V12.5854ZM96.3399 8.76897C96.3399 9.80981 96.178 10.7177 95.8541 11.4925C95.5303 12.2673 95.0677 12.9092 94.4664 13.418C93.8766 13.9269 93.1538 14.3085 92.298 14.563C91.4422 14.8174 90.4823 14.9446 89.4183 14.9446C88.9326 14.9446 88.3659 14.9215 87.7183 14.8752C87.0706 14.8405 86.4346 14.7596 85.8101 14.6324V2.92294C86.4346 2.80729 87.0822 2.73212 87.753 2.69743C88.4353 2.65117 89.0193 2.62804 89.505 2.62804C90.5343 2.62804 91.4653 2.74368 92.298 2.97498C93.1422 3.20628 93.865 3.57057 94.4664 4.06786C95.0677 4.56515 95.5303 5.20122 95.8541 5.97606C96.178 6.75091 96.3399 7.68188 96.3399 8.76897Z" fill="white"/>
<path d="M105.387 14.9446C104.728 14.9446 104.069 14.9215 103.41 14.8752C102.762 14.8405 102.085 14.748 101.38 14.5977V2.94029C101.935 2.8362 102.542 2.76103 103.201 2.71477C103.861 2.65695 104.474 2.62804 105.04 2.62804C105.803 2.62804 106.503 2.68586 107.139 2.80151C107.787 2.90559 108.342 3.09063 108.805 3.35662C109.267 3.62261 109.626 3.97534 109.88 4.41481C110.146 4.84271 110.279 5.37469 110.279 6.01076C110.279 6.97064 109.816 7.72814 108.891 8.28325C109.655 8.57237 110.175 8.96558 110.453 9.46286C110.73 9.96015 110.869 10.521 110.869 11.1456C110.869 12.4061 110.406 13.3544 109.481 13.9905C108.567 14.6266 107.203 14.9446 105.387 14.9446ZM104.017 9.5496V12.6548C104.213 12.6779 104.427 12.6952 104.659 12.7068C104.89 12.7184 105.144 12.7242 105.422 12.7242C106.231 12.7242 106.885 12.6085 107.382 12.3772C107.879 12.1459 108.128 11.718 108.128 11.0935C108.128 10.5384 107.92 10.1452 107.504 9.91389C107.087 9.67103 106.492 9.5496 105.717 9.5496H104.017ZM104.017 7.48527H105.335C106.168 7.48527 106.763 7.38119 107.122 7.17302C107.48 6.95329 107.66 6.60635 107.66 6.13219C107.66 5.64646 107.475 5.3053 107.105 5.1087C106.734 4.91209 106.191 4.81379 105.474 4.81379C105.243 4.81379 104.994 4.81958 104.728 4.83114C104.462 4.83114 104.225 4.84271 104.017 4.86584V7.48527Z" fill="white"/>
<path d="M116.155 7.71079C116.64 6.88968 117.103 6.06858 117.542 5.24748C117.982 4.42637 118.387 3.59948 118.757 2.76681H121.74C121.081 4.06208 120.399 5.31686 119.693 6.53117C118.988 7.74548 118.242 8.96558 117.456 10.1915V14.7885H114.749V10.2261C113.963 9.00027 113.211 7.7744 112.494 6.54852C111.789 5.32265 111.106 4.06208 110.447 2.76681H113.587C113.957 3.59948 114.356 4.42637 114.784 5.24748C115.212 6.06858 115.669 6.88968 116.155 7.71079Z" fill="white"/>
<path d="M129.602 14.9446C128.943 14.9446 128.284 14.9215 127.624 14.8752C126.977 14.8405 126.3 14.748 125.595 14.5977V2.94029C126.15 2.8362 126.757 2.76103 127.416 2.71477C128.075 2.65695 128.688 2.62804 129.255 2.62804C130.018 2.62804 130.718 2.68586 131.354 2.80151C132.002 2.90559 132.557 3.09063 133.019 3.35662C133.482 3.62261 133.84 3.97534 134.095 4.41481C134.361 4.84271 134.494 5.37469 134.494 6.01076C134.494 6.97064 134.031 7.72814 133.106 8.28325C133.869 8.57237 134.39 8.96558 134.667 9.46286C134.945 9.96015 135.084 10.521 135.084 11.1456C135.084 12.4061 134.621 13.3544 133.696 13.9905C132.782 14.6266 131.418 14.9446 129.602 14.9446ZM128.232 9.5496V12.6548C128.428 12.6779 128.642 12.6952 128.873 12.7068C129.105 12.7184 129.359 12.7242 129.637 12.7242C130.446 12.7242 131.1 12.6085 131.597 12.3772C132.094 12.1459 132.343 11.718 132.343 11.0935C132.343 10.5384 132.135 10.1452 131.718 9.91389C131.302 9.67103 130.706 9.5496 129.932 9.5496H128.232ZM128.232 7.48527H129.55C130.383 7.48527 130.978 7.38119 131.337 7.17302C131.695 6.95329 131.874 6.60635 131.874 6.13219C131.874 5.64646 131.689 5.3053 131.319 5.1087C130.949 4.91209 130.406 4.81379 129.689 4.81379C129.457 4.81379 129.209 4.81958 128.943 4.83114C128.677 4.83114 128.44 4.84271 128.232 4.86584V7.48527Z" fill="#D82222"/>
<path d="M138.829 8.76897C138.829 9.35878 138.898 9.89076 139.037 10.3649C139.187 10.8391 139.395 11.2496 139.661 11.5966C139.939 11.932 140.274 12.1922 140.667 12.3772C141.061 12.5622 141.512 12.6548 142.02 12.6548C142.518 12.6548 142.963 12.5622 143.356 12.3772C143.761 12.1922 144.096 11.932 144.362 11.5966C144.64 11.2496 144.848 10.8391 144.987 10.3649C145.137 9.89076 145.212 9.35878 145.212 8.76897C145.212 8.17917 145.137 7.64718 144.987 7.17302C144.848 6.6873 144.64 6.27675 144.362 5.94137C144.096 5.59442 143.761 5.32843 143.356 5.14339C142.963 4.95835 142.518 4.86584 142.02 4.86584C141.512 4.86584 141.061 4.96414 140.667 5.16074C140.274 5.34578 139.939 5.61177 139.661 5.95871C139.395 6.29409 139.187 6.70465 139.037 7.19037C138.898 7.66453 138.829 8.19073 138.829 8.76897ZM148.005 8.76897C148.005 9.79824 147.849 10.7061 147.537 11.4925C147.236 12.2673 146.82 12.9208 146.288 13.4527C145.756 13.9732 145.12 14.3664 144.38 14.6324C143.651 14.8983 142.865 15.0313 142.02 15.0313C141.199 15.0313 140.424 14.8983 139.696 14.6324C138.967 14.3664 138.331 13.9732 137.788 13.4527C137.244 12.9208 136.816 12.2673 136.504 11.4925C136.192 10.7061 136.036 9.79824 136.036 8.76897C136.036 7.7397 136.198 6.83764 136.521 6.0628C136.845 5.27639 137.279 4.61719 137.822 4.08521C138.378 3.55322 139.014 3.15424 139.731 2.88825C140.459 2.62225 141.222 2.48926 142.02 2.48926C142.842 2.48926 143.616 2.62225 144.345 2.88825C145.074 3.15424 145.71 3.55322 146.253 4.08521C146.797 4.61719 147.225 5.27639 147.537 6.0628C147.849 6.83764 148.005 7.7397 148.005 8.76897Z" fill="#D82222"/>
<path d="M148.493 0.407715H151.113L156.941 17.1999H154.287L148.493 0.407715Z" fill="white"/>
<path d="M160.675 14.1468C160.016 14.1468 159.357 14.1236 158.698 14.0774C158.05 14.0427 157.374 13.9502 156.668 13.7998V2.14244C157.223 2.03836 157.83 1.96319 158.49 1.91693C159.149 1.8591 159.762 1.83019 160.328 1.83019C161.092 1.83019 161.791 1.88802 162.427 2.00366C163.075 2.10775 163.63 2.29279 164.093 2.55878C164.555 2.82477 164.914 3.1775 165.168 3.61696C165.434 4.04486 165.567 4.57684 165.567 5.21291C165.567 6.17279 165.105 6.93029 164.179 7.4854C164.943 7.77453 165.463 8.16773 165.741 8.66502C166.018 9.16231 166.157 9.7232 166.157 10.3477C166.157 11.6083 165.694 12.5566 164.769 13.1927C163.856 13.8287 162.491 14.1468 160.675 14.1468ZM159.305 8.75176V11.8569C159.501 11.88 159.715 11.8974 159.947 11.909C160.178 11.9205 160.432 11.9263 160.71 11.9263C161.52 11.9263 162.173 11.8107 162.67 11.5794C163.168 11.3481 163.416 10.9202 163.416 10.2957C163.416 9.74055 163.208 9.34735 162.792 9.11605C162.375 8.87319 161.78 8.75176 161.005 8.75176H159.305ZM159.305 6.68743H160.623C161.456 6.68743 162.052 6.58335 162.41 6.37518C162.769 6.15545 162.948 5.8085 162.948 5.33434C162.948 4.84862 162.763 4.50746 162.393 4.31085C162.023 4.11425 161.479 4.01595 160.762 4.01595C160.531 4.01595 160.282 4.02173 160.016 4.0333C159.75 4.0333 159.513 4.04486 159.305 4.06799V6.68743Z" fill="white"/>
<path d="M169.902 7.97113C169.902 8.56094 169.971 9.09292 170.11 9.56708C170.26 10.0412 170.469 10.4518 170.735 10.7987C171.012 11.1341 171.347 11.3943 171.741 11.5794C172.134 11.7644 172.585 11.8569 173.094 11.8569C173.591 11.8569 174.036 11.7644 174.43 11.5794C174.834 11.3943 175.17 11.1341 175.436 10.7987C175.713 10.4518 175.921 10.0412 176.06 9.56708C176.211 9.09292 176.286 8.56094 176.286 7.97113C176.286 7.38132 176.211 6.84934 176.06 6.37518C175.921 5.88946 175.713 5.4789 175.436 5.14352C175.17 4.79658 174.834 4.53058 174.43 4.34555C174.036 4.16051 173.591 4.06799 173.094 4.06799C172.585 4.06799 172.134 4.16629 171.741 4.3629C171.347 4.54793 171.012 4.81392 170.735 5.16087C170.469 5.49625 170.26 5.9068 170.11 6.39253C169.971 6.86669 169.902 7.39289 169.902 7.97113ZM179.079 7.97113C179.079 9.0004 178.922 9.90824 178.61 10.6947C178.31 11.4695 177.893 12.1229 177.361 12.6549C176.829 13.1753 176.193 13.5685 175.453 13.8345C174.724 14.1005 173.938 14.2335 173.094 14.2335C172.273 14.2335 171.498 14.1005 170.769 13.8345C170.041 13.5685 169.405 13.1753 168.861 12.6549C168.317 12.1229 167.89 11.4695 167.577 10.6947C167.265 9.90824 167.109 9.0004 167.109 7.97113C167.109 6.94186 167.271 6.0398 167.595 5.26495C167.919 4.47854 168.352 3.81935 168.896 3.28736C169.451 2.75538 170.087 2.35639 170.804 2.0904C171.533 1.82441 172.296 1.69141 173.094 1.69141C173.915 1.69141 174.69 1.82441 175.418 2.0904C176.147 2.35639 176.783 2.75538 177.327 3.28736C177.87 3.81935 178.298 4.47854 178.61 5.26495C178.922 6.0398 179.079 6.94186 179.079 7.97113Z" fill="white"/>
</svg>
