<svg width="59" height="789" viewBox="0 0 59 789" fill="none" xmlns="http://www.w3.org/2000/svg">
<path d="M38.8143 218.908L41.3542 368.296L44.6467 223.988L39.0965 218.908H38.8143Z" fill="url(#paint0_linear)"/>
<path d="M48.7858 228.409L51.3257 361.428L54.7122 233.489L49.068 228.409H48.7858Z" fill="url(#paint1_linear)"/>
<path d="M29.4073 209.971L31.8532 373.281L35.1456 215.239L29.4073 209.971Z" fill="url(#paint2_linear)"/>
<path d="M19.9062 201.222L22.3521 378.362L25.6445 206.584L19.9062 201.222Z" fill="url(#paint3_linear)"/>
<path d="M10.4052 192.567L12.851 384.1L16.1434 197.835L10.4052 192.567Z" fill="url(#paint4_linear)"/>
<path d="M0.904053 183.818L3.34988 389.932L6.73641 189.181L0.904053 183.818Z" fill="url(#paint5_linear)"/>
<path d="M14.5442 41.2979L17.8366 150.422L20.2825 35.7476L14.5442 41.2979Z" fill="url(#paint6_linear)"/>
<path d="M4.57275 50.1408L7.86521 145.343L10.311 44.6846L4.57275 50.1408Z" fill="url(#paint7_linear)"/>
<path d="M24.0453 32.2669L27.3377 156.161L29.7836 26.9048L24.0453 32.2669Z" fill="url(#paint8_linear)"/>
<path d="M33.5464 23.5181L36.8388 165.85L39.2847 17.9678L33.5464 23.5181Z" fill="url(#paint9_linear)"/>
<path d="M42.9535 14.7692L46.246 177.327L48.6918 9.03076L42.9535 14.7692Z" fill="url(#paint10_linear)"/>
<path d="M52.3605 6.02067L55.747 186.829L58.2869 0L52.3605 6.02067Z" fill="url(#paint11_linear)"/>
<path d="M38.8143 617.777L41.3542 767.165L44.6467 622.857L39.0965 617.777H38.8143Z" fill="url(#paint12_linear)"/>
<path d="M48.7858 627.278L51.3257 760.297L54.7122 632.358L49.068 627.278H48.7858Z" fill="url(#paint13_linear)"/>
<path d="M29.4073 608.84L31.8532 772.15L35.1456 614.108L29.4073 608.84Z" fill="url(#paint14_linear)"/>
<path d="M19.9062 600.185L22.3521 777.23L25.6445 605.453L19.9062 600.185Z" fill="url(#paint15_linear)"/>
<path d="M10.4052 591.437L12.851 782.969L16.1434 596.705L10.4052 591.437Z" fill="url(#paint16_linear)"/>
<path d="M0.904053 582.782L3.34988 788.801L6.73641 588.144L0.904053 582.782Z" fill="url(#paint17_linear)"/>
<path d="M14.5442 434.24L17.8366 543.365L20.2825 428.784L14.5442 434.24Z" fill="url(#paint18_linear)"/>
<path d="M4.57275 443.177L7.86521 538.285L10.311 437.721L4.57275 443.177Z" fill="url(#paint19_linear)"/>
<path d="M24.0453 425.304L27.3377 549.104L29.7836 419.848L24.0453 425.304Z" fill="url(#paint20_linear)"/>
<path d="M33.5464 416.555L36.8388 558.887L39.2847 410.911L33.5464 416.555Z" fill="url(#paint21_linear)"/>
<path d="M42.9535 407.806L46.246 570.364L48.6918 401.974L42.9535 407.806Z" fill="url(#paint22_linear)"/>
<path d="M52.3605 398.963L55.747 579.865L58.2869 393.037L52.3605 398.963Z" fill="url(#paint23_linear)"/>
<defs>
<linearGradient id="paint0_linear" x1="41.7506" y1="368.275" x2="41.7506" y2="218.877" gradientUnits="userSpaceOnUse">
<stop stop-color="#187ABF"/>
<stop offset="0.6872" stop-color="#56A8DE"/>
<stop offset="1" stop-color="#187ABF"/>
</linearGradient>
<linearGradient id="paint1_linear" x1="51.7355" y1="361.388" x2="51.7355" y2="228.413" gradientUnits="userSpaceOnUse">
<stop stop-color="#187ABF"/>
<stop offset="0.6872" stop-color="#56A8DE"/>
<stop offset="1" stop-color="#187ABF"/>
</linearGradient>
<linearGradient id="paint2_linear" x1="32.2619" y1="373.252" x2="32.2619" y2="209.939" gradientUnits="userSpaceOnUse">
<stop stop-color="#187ABF"/>
<stop offset="0.6872" stop-color="#56A8DE"/>
<stop offset="1" stop-color="#187ABF"/>
</linearGradient>
<linearGradient id="paint3_linear" x1="22.7759" y1="378.339" x2="22.7759" y2="201.267" gradientUnits="userSpaceOnUse">
<stop stop-color="#187ABF"/>
<stop offset="0.6872" stop-color="#56A8DE"/>
<stop offset="1" stop-color="#187ABF"/>
</linearGradient>
<linearGradient id="paint4_linear" x1="13.2926" y1="384.06" x2="13.2926" y2="192.59" gradientUnits="userSpaceOnUse">
<stop stop-color="#187ABF"/>
<stop offset="0.6872" stop-color="#56A8DE"/>
<stop offset="1" stop-color="#187ABF"/>
</linearGradient>
<linearGradient id="paint5_linear" x1="3.81854" y1="389.89" x2="3.81854" y2="183.854" gradientUnits="userSpaceOnUse">
<stop stop-color="#187ABF"/>
<stop offset="0.6872" stop-color="#56A8DE"/>
<stop offset="1" stop-color="#187ABF"/>
</linearGradient>
<linearGradient id="paint6_linear" x1="17.4174" y1="150.396" x2="17.4174" y2="35.7854" gradientUnits="userSpaceOnUse">
<stop stop-color="#187ABF"/>
<stop offset="0.6872" stop-color="#56A8DE"/>
<stop offset="1" stop-color="#187ABF"/>
</linearGradient>
<linearGradient id="paint7_linear" x1="7.43155" y1="145.31" x2="7.43155" y2="44.6946" gradientUnits="userSpaceOnUse">
<stop stop-color="#187ABF"/>
<stop offset="0.6872" stop-color="#56A8DE"/>
<stop offset="1" stop-color="#187ABF"/>
</linearGradient>
<linearGradient id="paint8_linear" x1="26.8951" y1="156.117" x2="26.8951" y2="26.866" gradientUnits="userSpaceOnUse">
<stop stop-color="#187ABF"/>
<stop offset="0.6872" stop-color="#56A8DE"/>
<stop offset="1" stop-color="#187ABF"/>
</linearGradient>
<linearGradient id="paint9_linear" x1="36.3793" y1="165.852" x2="36.3793" y2="17.9339" gradientUnits="userSpaceOnUse">
<stop stop-color="#187ABF"/>
<stop offset="0.6872" stop-color="#56A8DE"/>
<stop offset="1" stop-color="#187ABF"/>
</linearGradient>
<linearGradient id="paint10_linear" x1="45.8599" y1="177.365" x2="45.8599" y2="8.99539" gradientUnits="userSpaceOnUse">
<stop stop-color="#187ABF"/>
<stop offset="0.6872" stop-color="#56A8DE"/>
<stop offset="1" stop-color="#187ABF"/>
</linearGradient>
<linearGradient id="paint11_linear" x1="55.3312" y1="186.839" x2="55.3312" y2="0" gradientUnits="userSpaceOnUse">
<stop stop-color="#187ABF"/>
<stop offset="0.6872" stop-color="#56A8DE"/>
<stop offset="1" stop-color="#187ABF"/>
</linearGradient>
<linearGradient id="paint12_linear" x1="41.7506" y1="767.158" x2="41.7506" y2="617.76" gradientUnits="userSpaceOnUse">
<stop stop-color="#187ABF"/>
<stop offset="0.6872" stop-color="#56A8DE"/>
<stop offset="1" stop-color="#187ABF"/>
</linearGradient>
<linearGradient id="paint13_linear" x1="51.7355" y1="760.271" x2="51.7355" y2="627.296" gradientUnits="userSpaceOnUse">
<stop stop-color="#187ABF"/>
<stop offset="0.6872" stop-color="#56A8DE"/>
<stop offset="1" stop-color="#187ABF"/>
</linearGradient>
<linearGradient id="paint14_linear" x1="32.2619" y1="772.135" x2="32.2619" y2="608.821" gradientUnits="userSpaceOnUse">
<stop stop-color="#187ABF"/>
<stop offset="0.6872" stop-color="#56A8DE"/>
<stop offset="1" stop-color="#187ABF"/>
</linearGradient>
<linearGradient id="paint15_linear" x1="22.7759" y1="777.221" x2="22.7759" y2="600.15" gradientUnits="userSpaceOnUse">
<stop stop-color="#187ABF"/>
<stop offset="0.6872" stop-color="#56A8DE"/>
<stop offset="1" stop-color="#187ABF"/>
</linearGradient>
<linearGradient id="paint16_linear" x1="13.2926" y1="782.943" x2="13.2926" y2="591.472" gradientUnits="userSpaceOnUse">
<stop stop-color="#187ABF"/>
<stop offset="0.6872" stop-color="#56A8DE"/>
<stop offset="1" stop-color="#187ABF"/>
</linearGradient>
<linearGradient id="paint17_linear" x1="3.81854" y1="788.773" x2="3.81854" y2="582.737" gradientUnits="userSpaceOnUse">
<stop stop-color="#187ABF"/>
<stop offset="0.6872" stop-color="#56A8DE"/>
<stop offset="1" stop-color="#187ABF"/>
</linearGradient>
<linearGradient id="paint18_linear" x1="17.4174" y1="543.393" x2="17.4174" y2="428.782" gradientUnits="userSpaceOnUse">
<stop stop-color="#187ABF"/>
<stop offset="0.6872" stop-color="#56A8DE"/>
<stop offset="1" stop-color="#187ABF"/>
</linearGradient>
<linearGradient id="paint19_linear" x1="7.43155" y1="538.307" x2="7.43155" y2="437.683" gradientUnits="userSpaceOnUse">
<stop stop-color="#187ABF"/>
<stop offset="0.6872" stop-color="#56A8DE"/>
<stop offset="1" stop-color="#187ABF"/>
</linearGradient>
<linearGradient id="paint20_linear" x1="26.8951" y1="549.115" x2="26.8951" y2="419.863" gradientUnits="userSpaceOnUse">
<stop stop-color="#187ABF"/>
<stop offset="0.6872" stop-color="#56A8DE"/>
<stop offset="1" stop-color="#187ABF"/>
</linearGradient>
<linearGradient id="paint21_linear" x1="36.3793" y1="558.849" x2="36.3793" y2="410.931" gradientUnits="userSpaceOnUse">
<stop stop-color="#187ABF"/>
<stop offset="0.6872" stop-color="#56A8DE"/>
<stop offset="1" stop-color="#187ABF"/>
</linearGradient>
<linearGradient id="paint22_linear" x1="45.8599" y1="570.362" x2="45.8599" y2="401.993" gradientUnits="userSpaceOnUse">
<stop stop-color="#187ABF"/>
<stop offset="0.6872" stop-color="#56A8DE"/>
<stop offset="1" stop-color="#187ABF"/>
</linearGradient>
<linearGradient id="paint23_linear" x1="55.3312" y1="579.836" x2="55.3312" y2="392.997" gradientUnits="userSpaceOnUse">
<stop stop-color="#187ABF"/>
<stop offset="0.6872" stop-color="#56A8DE"/>
<stop offset="1" stop-color="#187ABF"/>
</linearGradient>
</defs>
</svg>
