<svg width="22" height="24" viewBox="0 0 22 24" fill="none" xmlns="http://www.w3.org/2000/svg">
<path d="M8.51211 5.92972C8.60015 6.15392 8.61884 6.40331 8.56535 6.64014C8.51185 6.87696 8.38908 7.08832 8.21562 7.24222L5.61172 9.56722C7.18876 13.2161 9.88055 16.1526 13.2254 17.873L15.3566 15.0324C15.4979 14.8435 15.6917 14.7099 15.9087 14.6515C16.1257 14.5932 16.3541 14.6134 16.5597 14.7089M8.51211 5.92972L6.44961 0.67973M8.51211 5.92972L8.04671 6.11249M8.51211 5.92972L16.3489 15.1623M6.44961 0.67973C6.35298 0.438047 6.18207 0.240721 5.96636 0.121777C5.75065 0.00283366 5.50366 -0.0302721 5.26797 0.0281687M6.44961 0.67973L5.98534 0.865356M6.44961 0.67973L5.98423 0.862557L5.98485 0.864115C5.92843 0.723795 5.83311 0.619277 5.72493 0.559625C5.61799 0.500657 5.50029 0.485892 5.38902 0.513295L5.39003 0.51304L5.26797 0.0281687M5.26797 0.0281687L0.799219 1.15317C0.571987 1.21041 0.36925 1.34999 0.224097 1.54911C0.0789444 1.74824 -5.2345e-05 1.99516 0 2.24957C0 14.273 8.9332 23.9995 19.9375 23.9995C20.1708 23.9997 20.3972 23.9136 20.5799 23.7552C20.7625 23.5969 20.8905 23.3756 20.943 23.1277L21.9742 18.2527M5.26797 0.0281687L5.3883 0.513472L0.92136 1.63802L0.79923 1.15321L0.921284 1.63804C0.813573 1.66519 0.708283 1.7337 0.628144 1.84364C0.5475 1.95427 0.499969 2.09727 0.5 2.24947L0.5 2.24957C0.5 14.0384 9.24914 23.4995 19.9375 23.4995H19.9378C20.046 23.4996 20.1571 23.46 20.2523 23.3775C20.3484 23.2941 20.4227 23.1711 20.4538 23.0241L21.4845 18.1518L21.9742 18.2527M21.9742 18.2527C22.0274 17.9943 21.9965 17.7238 21.8866 17.4877C21.7767 17.2515 21.5948 17.0646 21.3722 16.9589M21.9742 18.2527L21.485 18.1492L21.4847 18.1507C21.5163 17.9964 21.4971 17.8357 21.4333 17.6986C21.3697 17.5621 21.2696 17.464 21.159 17.4112L21.1605 17.4119L21.3722 16.9589M21.3722 16.9589L16.5597 14.7089M21.3722 16.9589L21.1579 17.4107L16.3489 15.1623M16.5597 14.7089L16.3489 15.1623M16.5597 14.7089L16.348 15.1619L16.3487 15.1622C16.2486 15.1158 16.1408 15.1069 16.0385 15.1344C15.9353 15.1621 15.8347 15.228 15.7569 15.332L15.7565 15.3324L13.6253 18.1731L13.372 18.5107L12.9967 18.3176C9.54276 16.5411 6.7729 13.5142 5.15275 9.76559L5.00965 9.43449L5.2787 9.19426L7.88261 6.86926L7.88378 6.86821C7.97512 6.78718 8.04605 6.66981 8.07763 6.52997C8.10925 6.39001 8.09784 6.24274 8.04673 6.11255C8.04673 6.11253 8.04672 6.11251 8.04671 6.11249M16.3489 15.1623L5.98534 0.865356M8.04671 6.11249L5.98534 0.865356M8.04671 6.11249L5.98534 0.865356" stroke="black"/>
</svg>
