<svg width="59" height="787" viewBox="0 0 59 787" fill="none" xmlns="http://www.w3.org/2000/svg">
<path d="M20.1903 216.19L17.6504 365.578L14.2639 221.27L19.8141 216.19H20.1903Z" fill="url(#paint0_linear)"/>
<path d="M10.1248 225.691L7.67901 358.711L4.29248 230.865L9.84262 225.691H10.1248Z" fill="url(#paint1_linear)"/>
<path d="M29.5973 207.253L27.1514 370.564L23.7649 212.521L29.5973 207.253Z" fill="url(#paint2_linear)"/>
<path d="M39.0985 198.598L36.6526 375.643L33.2661 203.866L39.0985 198.598Z" fill="url(#paint3_linear)"/>
<path d="M48.5054 189.944L46.1536 381.382L42.7671 195.212L48.5054 189.944Z" fill="url(#paint4_linear)"/>
<path d="M58.1008 181.195L55.5609 387.215L52.1743 186.557L58.1008 181.195Z" fill="url(#paint5_linear)"/>
<path d="M44.4605 41.6847L41.168 150.809L38.6282 36.2285L44.4605 41.6847Z" fill="url(#paint6_linear)"/>
<path d="M54.4319 50.6216L51.1395 145.729L48.5996 45.0713L54.4319 50.6216Z" fill="url(#paint7_linear)"/>
<path d="M34.9593 32.7477L31.6668 156.548L29.2209 27.2915L34.9593 32.7477Z" fill="url(#paint8_linear)"/>
<path d="M25.4583 23.9048L22.1658 166.237L19.72 18.3545L25.4583 23.9048Z" fill="url(#paint9_linear)"/>
<path d="M15.9573 15.1559L12.6648 177.808L10.219 9.41748L15.9573 15.1559Z" fill="url(#paint10_linear)"/>
<path d="M6.55017 6.40739L3.16362 187.216L0.717773 0.386719L6.55017 6.40739Z" fill="url(#paint11_linear)"/>
<path d="M20.1903 615.059L17.6504 764.447L14.2639 620.139L19.8141 615.059H20.1903Z" fill="url(#paint12_linear)"/>
<path d="M10.1248 624.655L7.67901 757.58L4.29248 629.735L9.84262 624.655H10.1248Z" fill="url(#paint13_linear)"/>
<path d="M29.5975 606.123L27.1517 769.433L23.7651 611.485L29.5975 606.123Z" fill="url(#paint14_linear)"/>
<path d="M39.0985 597.468L36.6526 774.513L33.2661 602.736L39.0985 597.468Z" fill="url(#paint15_linear)"/>
<path d="M48.5054 588.813L46.1536 780.251L42.7671 594.081L48.5054 588.813Z" fill="url(#paint16_linear)"/>
<path d="M58.1008 580.064L55.5609 786.084L52.1743 585.426L58.1008 580.064Z" fill="url(#paint17_linear)"/>
<path d="M44.4605 434.439L41.168 543.564L38.6282 428.983L44.4605 434.439Z" fill="url(#paint18_linear)"/>
<path d="M54.4319 443.376L51.1395 538.484L48.5996 437.92L54.4319 443.376Z" fill="url(#paint19_linear)"/>
<path d="M34.9595 425.502L31.667 549.302L29.2212 420.046L34.9595 425.502Z" fill="url(#paint20_linear)"/>
<path d="M25.4583 416.754L22.1658 559.086L19.72 411.109L25.4583 416.754Z" fill="url(#paint21_linear)"/>
<path d="M15.9573 408.005L12.6648 570.563L10.219 402.172L15.9573 408.005Z" fill="url(#paint22_linear)"/>
<path d="M6.55017 399.162L3.16362 580.064L0.717773 393.235L6.55017 399.162Z" fill="url(#paint23_linear)"/>
<defs>
<linearGradient id="paint0_linear" x1="17.2112" y1="365.591" x2="17.2112" y2="216.193" gradientUnits="userSpaceOnUse">
<stop stop-color="#187ABF"/>
<stop offset="0.6872" stop-color="#56A8DE"/>
<stop offset="1" stop-color="#187ABF"/>
</linearGradient>
<linearGradient id="paint1_linear" x1="7.22605" y1="358.704" x2="7.22605" y2="225.729" gradientUnits="userSpaceOnUse">
<stop stop-color="#187ABF"/>
<stop offset="0.6872" stop-color="#56A8DE"/>
<stop offset="1" stop-color="#187ABF"/>
</linearGradient>
<linearGradient id="paint2_linear" x1="26.6996" y1="370.569" x2="26.6996" y2="207.255" gradientUnits="userSpaceOnUse">
<stop stop-color="#187ABF"/>
<stop offset="0.6872" stop-color="#56A8DE"/>
<stop offset="1" stop-color="#187ABF"/>
</linearGradient>
<linearGradient id="paint3_linear" x1="36.1858" y1="375.654" x2="36.1858" y2="198.583" gradientUnits="userSpaceOnUse">
<stop stop-color="#187ABF"/>
<stop offset="0.6872" stop-color="#56A8DE"/>
<stop offset="1" stop-color="#187ABF"/>
</linearGradient>
<linearGradient id="paint4_linear" x1="45.6691" y1="381.376" x2="45.6691" y2="189.906" gradientUnits="userSpaceOnUse">
<stop stop-color="#187ABF"/>
<stop offset="0.6872" stop-color="#56A8DE"/>
<stop offset="1" stop-color="#187ABF"/>
</linearGradient>
<linearGradient id="paint5_linear" x1="55.1427" y1="387.206" x2="55.1427" y2="181.171" gradientUnits="userSpaceOnUse">
<stop stop-color="#187ABF"/>
<stop offset="0.6872" stop-color="#56A8DE"/>
<stop offset="1" stop-color="#187ABF"/>
</linearGradient>
<linearGradient id="paint6_linear" x1="41.5445" y1="150.819" x2="41.5445" y2="36.2092" gradientUnits="userSpaceOnUse">
<stop stop-color="#187ABF"/>
<stop offset="0.6872" stop-color="#56A8DE"/>
<stop offset="1" stop-color="#187ABF"/>
</linearGradient>
<linearGradient id="paint7_linear" x1="51.5297" y1="145.734" x2="51.5297" y2="45.1095" gradientUnits="userSpaceOnUse">
<stop stop-color="#187ABF"/>
<stop offset="0.6872" stop-color="#56A8DE"/>
<stop offset="1" stop-color="#187ABF"/>
</linearGradient>
<linearGradient id="paint8_linear" x1="32.0658" y1="156.541" x2="32.0658" y2="27.2898" gradientUnits="userSpaceOnUse">
<stop stop-color="#187ABF"/>
<stop offset="0.6872" stop-color="#56A8DE"/>
<stop offset="1" stop-color="#187ABF"/>
</linearGradient>
<linearGradient id="paint9_linear" x1="22.5825" y1="166.276" x2="22.5825" y2="18.3577" gradientUnits="userSpaceOnUse">
<stop stop-color="#187ABF"/>
<stop offset="0.6872" stop-color="#56A8DE"/>
<stop offset="1" stop-color="#187ABF"/>
</linearGradient>
<linearGradient id="paint10_linear" x1="13.1017" y1="177.789" x2="13.1017" y2="9.41917" gradientUnits="userSpaceOnUse">
<stop stop-color="#187ABF"/>
<stop offset="0.6872" stop-color="#56A8DE"/>
<stop offset="1" stop-color="#187ABF"/>
</linearGradient>
<linearGradient id="paint11_linear" x1="3.63049" y1="187.263" x2="3.63049" y2="0.423692" gradientUnits="userSpaceOnUse">
<stop stop-color="#187ABF"/>
<stop offset="0.6872" stop-color="#56A8DE"/>
<stop offset="1" stop-color="#187ABF"/>
</linearGradient>
<linearGradient id="paint12_linear" x1="17.2112" y1="764.474" x2="17.2112" y2="615.076" gradientUnits="userSpaceOnUse">
<stop stop-color="#187ABF"/>
<stop offset="0.6872" stop-color="#56A8DE"/>
<stop offset="1" stop-color="#187ABF"/>
</linearGradient>
<linearGradient id="paint13_linear" x1="7.22605" y1="757.587" x2="7.22605" y2="624.612" gradientUnits="userSpaceOnUse">
<stop stop-color="#187ABF"/>
<stop offset="0.6872" stop-color="#56A8DE"/>
<stop offset="1" stop-color="#187ABF"/>
</linearGradient>
<linearGradient id="paint14_linear" x1="26.6999" y1="769.452" x2="26.6999" y2="606.138" gradientUnits="userSpaceOnUse">
<stop stop-color="#187ABF"/>
<stop offset="0.6872" stop-color="#56A8DE"/>
<stop offset="1" stop-color="#187ABF"/>
</linearGradient>
<linearGradient id="paint15_linear" x1="36.1858" y1="774.538" x2="36.1858" y2="597.467" gradientUnits="userSpaceOnUse">
<stop stop-color="#187ABF"/>
<stop offset="0.6872" stop-color="#56A8DE"/>
<stop offset="1" stop-color="#187ABF"/>
</linearGradient>
<linearGradient id="paint16_linear" x1="45.6691" y1="780.259" x2="45.6691" y2="588.789" gradientUnits="userSpaceOnUse">
<stop stop-color="#187ABF"/>
<stop offset="0.6872" stop-color="#56A8DE"/>
<stop offset="1" stop-color="#187ABF"/>
</linearGradient>
<linearGradient id="paint17_linear" x1="55.1427" y1="786.089" x2="55.1427" y2="580.054" gradientUnits="userSpaceOnUse">
<stop stop-color="#187ABF"/>
<stop offset="0.6872" stop-color="#56A8DE"/>
<stop offset="1" stop-color="#187ABF"/>
</linearGradient>
<linearGradient id="paint18_linear" x1="41.5445" y1="543.611" x2="41.5445" y2="429" gradientUnits="userSpaceOnUse">
<stop stop-color="#187ABF"/>
<stop offset="0.6872" stop-color="#56A8DE"/>
<stop offset="1" stop-color="#187ABF"/>
</linearGradient>
<linearGradient id="paint19_linear" x1="51.5297" y1="538.525" x2="51.5297" y2="437.901" gradientUnits="userSpaceOnUse">
<stop stop-color="#187ABF"/>
<stop offset="0.6872" stop-color="#56A8DE"/>
<stop offset="1" stop-color="#187ABF"/>
</linearGradient>
<linearGradient id="paint20_linear" x1="32.0661" y1="549.332" x2="32.0661" y2="420.081" gradientUnits="userSpaceOnUse">
<stop stop-color="#187ABF"/>
<stop offset="0.6872" stop-color="#56A8DE"/>
<stop offset="1" stop-color="#187ABF"/>
</linearGradient>
<linearGradient id="paint21_linear" x1="22.5825" y1="559.067" x2="22.5825" y2="411.149" gradientUnits="userSpaceOnUse">
<stop stop-color="#187ABF"/>
<stop offset="0.6872" stop-color="#56A8DE"/>
<stop offset="1" stop-color="#187ABF"/>
</linearGradient>
<linearGradient id="paint22_linear" x1="13.1017" y1="570.58" x2="13.1017" y2="402.211" gradientUnits="userSpaceOnUse">
<stop stop-color="#187ABF"/>
<stop offset="0.6872" stop-color="#56A8DE"/>
<stop offset="1" stop-color="#187ABF"/>
</linearGradient>
<linearGradient id="paint23_linear" x1="3.63049" y1="580.054" x2="3.63049" y2="393.215" gradientUnits="userSpaceOnUse">
<stop stop-color="#187ABF"/>
<stop offset="0.6872" stop-color="#56A8DE"/>
<stop offset="1" stop-color="#187ABF"/>
</linearGradient>
</defs>
</svg>
